<?xml version="1.0" encoding="utf-8"?>
<!-- Generator: Adobe Illustrator 16.0.0, SVG Export Plug-In . SVG Version: 6.00 Build 0)  -->
<!DOCTYPE svg PUBLIC "-//W3C//DTD SVG 1.1//EN" "http://www.w3.org/Graphics/SVG/1.1/DTD/svg11.dtd">
<svg version="1.1" xmlns="http://www.w3.org/2000/svg" xmlns:xlink="http://www.w3.org/1999/xlink" x="0px" y="0px" width="70px"
	 height="70px" viewBox="0 0 70 70" enable-background="new 0 0 70 70" xml:space="preserve">
<g id="Ebene_1">
	<polyline fill="none" stroke="#009640" stroke-miterlimit="10" points="69.5,70 69.5,7.03 62.823,1 33.329,12.686 33.329,11.481 
		18.084,13.8 18.084,23.814 0.5,29.936 0.5,70 	"/>
	<polyline fill="none" stroke="#009640" stroke-miterlimit="10" points="11.909,70 11.909,32.581 52.34,21.125 57.956,24.372 
		57.956,70 	"/>
	<line fill="none" stroke="#009640" stroke-miterlimit="10" x1="62.823" y1="1" x2="62.823" y2="70"/>
	<line fill="none" stroke="#009640" stroke-miterlimit="10" x1="52.34" y1="21.125" x2="52.34" y2="70"/>
	<path fill="none" stroke="#009640" stroke-miterlimit="10" d="M18.084,23.814"/>
</g>
<g id="Ebene_3">
	<g display="none">
		<g display="inline">
			<path fill="#009640" d="M44.164,15.193l0.014-3.187l0.737-0.272l-0.037,7.945l-0.735,0.192l0.019-3.866l-3.199,1.006
				l-0.021,3.692l-0.659,0.171l0.044-7.441l0.659-0.244l-0.019,3.045L44.164,15.193z"/>
			<path fill="#009640" d="M49.609,11.64c-0.3-0.475-0.655-0.681-1.283-0.455c-0.644,0.232-1.195,0.951-1.198,1.699
				c-0.002,0.705,0.632,0.82,1.124,0.912l0.486,0.086c0.974,0.167,1.819,0.456,1.815,1.819c-0.004,1.502-1.085,2.931-2.378,3.265
				c-1.155,0.298-1.988-0.325-2.205-1.518l0.76-0.466c0.098,0.804,0.651,1.337,1.429,1.127c0.794-0.213,1.535-1.11,1.537-2.067
				c0.003-0.99-0.686-1.114-1.372-1.256l-0.441-0.08c-0.836-0.17-1.542-0.425-1.536-1.584c0.005-1.255,0.931-2.403,2.003-2.802
				c0.824-0.307,1.533-0.088,1.938,0.598L49.609,11.64z"/>
			<path fill="#009640" d="M57.246,10.933l0.001-3.766l1.031-0.382l0.003,9.41l-1.034,0.27v-4.57l-4.448,1.397l-0.008,4.331
				l-0.906,0.236l0.015-8.711l0.906-0.336l-0.007,3.569L57.246,10.933z"/>
		</g>
	</g>
	<g>
		<g>
			<path fill="#009640" d="M46.5,13.605V11.13l0.668-0.246v6.125L46.5,17.228v-2.992l-2.709,0.938v2.936l-0.604,0.196v-5.956
				l0.604-0.222v2.428L46.5,13.605z"/>
			<path fill="#009640" d="M51.529,10.512c-0.263-0.341-0.578-0.476-1.138-0.272c-0.585,0.213-1.095,0.793-1.095,1.362
				c0,0.537,0.589,0.576,1.033,0.61l0.438,0.031c0.858,0.059,1.587,0.219,1.587,1.228c0,1.111-0.93,2.263-2.077,2.635
				c-1.06,0.344-1.845-0.042-2.058-0.928l0.718-0.43c0.097,0.602,0.614,0.949,1.324,0.715c0.708-0.232,1.356-0.964,1.356-1.676
				c0-0.736-0.606-0.78-1.216-0.836l-0.406-0.024c-0.767-0.065-1.436-0.2-1.436-1.085c0-0.96,0.869-1.896,1.85-2.257
				c0.734-0.271,1.355-0.139,1.707,0.354L51.529,10.512z"/>
			<path fill="#009640" d="M57.581,9.722V7.055l0.735-0.271v6.602l-0.735,0.239v-3.225l-3.381,1.17v3.153l-0.735,0.239V8.569
				L54.2,8.298v2.608L57.581,9.722z"/>
		</g>
	</g>
</g>
</svg>
